<svg xmlns="http://www.w3.org/2000/svg" xmlns:xlink="http://www.w3.org/1999/xlink" width="500" height="500" viewBox="0 0 500 500"><defs><style>.a{clip-path:url(#b);}.b{fill:#133b7f;}.c{fill:#80b9ed;}.d{fill:#a2d0f9;}.e{fill:#2e58ff;}</style><clipPath id="b"><rect width="500" height="500"/></clipPath></defs><g id="a" class="a"><rect class="d" width="500" height="500"/><rect class="b" width="475" height="475" transform="translate(13 13)"/><g transform="translate(670.544 -80) rotate(90)"><g transform="translate(387.61 193.805) rotate(135)"><path class="c" d="M270.041,237.837l-16.133,16.138L237.87,270.013a13.984,13.984,0,0,1-19.724,0L4.069,55.936a13.991,13.991,0,0,1,0-19.73L20.107,20.169l16.1-16.1a13.991,13.991,0,0,1,19.73,0L270.013,218.141A13.987,13.987,0,0,1,270.041,237.837Z" transform="translate(0 0)"/><path class="d" d="M249.934,237.837,233.8,253.975,0,20.169l16.1-16.1a13.991,13.991,0,0,1,19.73,0L249.906,218.141A13.987,13.987,0,0,1,249.934,237.837Z" transform="translate(20.107 0)"/><g transform="translate(32.075 4.802)"><path class="e" d="M1.229,29.3h0a4.2,4.2,0,0,1,0-5.933L24.6,0l5.933,5.933L7.162,29.3A4.2,4.2,0,0,1,1.229,29.3Z" transform="translate(0 0)"/><path class="e" d="M1.229,16.532h0a4.2,4.2,0,0,1,0-5.933L11.828,0l5.933,5.933-10.6,10.6A4.2,4.2,0,0,1,1.229,16.532Z" transform="translate(26.532 13.765)"/><path class="e" d="M1.229,29.3h0a4.2,4.2,0,0,1,0-5.933L24.6,0l5.933,5.933L7.162,29.3A4.2,4.2,0,0,1,1.229,29.3Z" transform="translate(55.059 55.06)"/><path class="e" d="M1.229,16.532h0a4.2,4.2,0,0,1,0-5.933L11.828,0l5.933,5.932-10.6,10.6A4.194,4.194,0,0,1,1.229,16.532Z" transform="translate(54.062 41.295)"/><path class="e" d="M1.229,16.532h0a4.2,4.2,0,0,1,0-5.933L11.828,0l5.933,5.933-10.6,10.6A4.2,4.2,0,0,1,1.229,16.532Z" transform="translate(40.297 27.53)"/><path class="e" d="M1.229,16.533h0a4.2,4.2,0,0,1,0-5.933L11.828,0l5.933,5.933-10.6,10.6A4.2,4.2,0,0,1,1.229,16.533Z" transform="translate(81.591 68.824)"/><path class="e" d="M1.229,29.3h0a4.2,4.2,0,0,1,0-5.933L24.595,0l5.934,5.933L7.162,29.3A4.2,4.2,0,0,1,1.229,29.3Z" transform="translate(110.118 110.119)"/><path class="e" d="M1.23,16.532h0a4.2,4.2,0,0,1,0-5.933L11.828,0l5.933,5.933-10.6,10.6A4.2,4.2,0,0,1,1.23,16.532Z" transform="translate(109.121 96.355)"/><path class="e" d="M1.229,16.532h0a4.2,4.2,0,0,1,0-5.933L11.827,0l5.933,5.933-10.6,10.6A4.2,4.2,0,0,1,1.229,16.532Z" transform="translate(95.356 82.589)"/><path class="e" d="M1.23,16.532h0a4.2,4.2,0,0,1,0-5.933L11.828,0l5.933,5.933-10.6,10.6A4.2,4.2,0,0,1,1.23,16.532Z" transform="translate(136.65 123.884)"/><path class="e" d="M1.23,29.3h0a4.2,4.2,0,0,1,0-5.933L24.595,0l5.933,5.933L7.162,29.3A4.2,4.2,0,0,1,1.23,29.3Z" transform="translate(165.177 165.179)"/><path class="e" d="M1.23,16.532h0a4.2,4.2,0,0,1,0-5.933L11.828,0l5.933,5.933-10.6,10.6A4.2,4.2,0,0,1,1.23,16.532Z" transform="translate(164.18 151.413)"/><path class="e" d="M1.229,16.533h0a4.2,4.2,0,0,1,0-5.933L11.828,0l5.933,5.933-10.6,10.6A4.2,4.2,0,0,1,1.229,16.533Z" transform="translate(150.416 137.649)"/><path class="e" d="M1.229,16.533h0a4.2,4.2,0,0,1,0-5.933L11.828,0l5.933,5.933-10.6,10.6A4.2,4.2,0,0,1,1.229,16.533Z" transform="translate(191.71 178.943)"/><path class="e" d="M1.23,16.533h0a4.2,4.2,0,0,1,0-5.933L11.828,0l5.933,5.933-10.6,10.6A4.2,4.2,0,0,1,1.23,16.533Z" transform="translate(219.24 206.473)"/><path class="e" d="M1.23,16.532h0a4.2,4.2,0,0,1,0-5.933L11.828,0l5.933,5.933-10.6,10.6A4.2,4.2,0,0,1,1.23,16.532Z" transform="translate(205.475 192.708)"/></g></g><g transform="translate(694.61 193.805) rotate(135)"><path class="c" d="M270.041,237.837l-16.133,16.138L237.87,270.013a13.984,13.984,0,0,1-19.724,0L4.069,55.936a13.991,13.991,0,0,1,0-19.73L20.107,20.169l16.1-16.1a13.991,13.991,0,0,1,19.73,0L270.013,218.141A13.987,13.987,0,0,1,270.041,237.837Z" transform="translate(0)"/><path class="d" d="M260.953,229.211,233.8,253.975,0,20.169l16.1-16.1a13.991,13.991,0,0,1,19.73,0L252.494,220.752C257.909,226.172,260.953,229.211,260.953,229.211Z" transform="translate(20.107 0)"/><g transform="translate(32.075 4.802)"><path class="e" d="M1.229,29.3h0a4.2,4.2,0,0,1,0-5.933L24.6,0l5.933,5.933L7.162,29.3A4.2,4.2,0,0,1,1.229,29.3Z" transform="translate(0 0)"/><path class="e" d="M1.229,16.532h0a4.2,4.2,0,0,1,0-5.933L11.828,0l5.933,5.933-10.6,10.6A4.2,4.2,0,0,1,1.229,16.532Z" transform="translate(26.532 13.765)"/><path class="e" d="M1.229,29.3h0a4.2,4.2,0,0,1,0-5.933L24.6,0l5.933,5.933L7.162,29.3A4.2,4.2,0,0,1,1.229,29.3Z" transform="translate(55.059 55.06)"/><path class="e" d="M1.229,16.532h0a4.2,4.2,0,0,1,0-5.933L11.828,0l5.933,5.932-10.6,10.6A4.194,4.194,0,0,1,1.229,16.532Z" transform="translate(54.062 41.295)"/><path class="e" d="M1.229,16.532h0a4.2,4.2,0,0,1,0-5.933L11.828,0l5.933,5.933-10.6,10.6A4.2,4.2,0,0,1,1.229,16.532Z" transform="translate(40.297 27.53)"/><path class="e" d="M1.229,16.533h0a4.2,4.2,0,0,1,0-5.933L11.828,0l5.933,5.933-10.6,10.6A4.2,4.2,0,0,1,1.229,16.533Z" transform="translate(81.591 68.824)"/><path class="e" d="M1.229,29.3h0a4.2,4.2,0,0,1,0-5.933L24.595,0l5.934,5.933L7.162,29.3A4.2,4.2,0,0,1,1.229,29.3Z" transform="translate(110.118 110.119)"/><path class="e" d="M1.23,16.532h0a4.2,4.2,0,0,1,0-5.933L11.828,0l5.933,5.933-10.6,10.6A4.2,4.2,0,0,1,1.23,16.532Z" transform="translate(109.121 96.355)"/><path class="e" d="M1.229,16.532h0a4.2,4.2,0,0,1,0-5.933L11.827,0l5.933,5.933-10.6,10.6A4.2,4.2,0,0,1,1.229,16.532Z" transform="translate(95.356 82.589)"/><path class="e" d="M1.23,16.532h0a4.2,4.2,0,0,1,0-5.933L11.828,0l5.933,5.933-10.6,10.6A4.2,4.2,0,0,1,1.23,16.532Z" transform="translate(136.65 123.884)"/><path class="e" d="M1.23,29.3h0a4.2,4.2,0,0,1,0-5.933L24.595,0l5.933,5.933L7.162,29.3A4.2,4.2,0,0,1,1.23,29.3Z" transform="translate(165.177 165.179)"/><path class="e" d="M1.23,29.3h0a4.2,4.2,0,0,1,0-5.933L24.595,0l5.933,5.933L7.162,29.3A4.2,4.2,0,0,1,1.23,29.3Z" transform="translate(217.559 217.56)"/><path class="e" d="M1.23,16.532h0a4.2,4.2,0,0,1,0-5.933L11.828,0l5.933,5.933-10.6,10.6A4.2,4.2,0,0,1,1.23,16.532Z" transform="translate(164.18 151.413)"/><path class="e" d="M1.229,16.533h0a4.2,4.2,0,0,1,0-5.933L11.828,0l5.933,5.933-10.6,10.6A4.2,4.2,0,0,1,1.229,16.533Z" transform="translate(150.416 137.649)"/><path class="e" d="M1.229,16.533h0a4.2,4.2,0,0,1,0-5.933L11.828,0l5.933,5.933-10.6,10.6A4.2,4.2,0,0,1,1.229,16.533Z" transform="translate(191.71 178.943)"/><path class="e" d="M1.23,16.533h0a4.2,4.2,0,0,1,0-5.933L11.828,0l5.933,5.933-10.6,10.6A4.2,4.2,0,0,1,1.23,16.533Z" transform="translate(219.24 206.473)"/><path class="e" d="M1.23,16.532h0a4.2,4.2,0,0,1,0-5.933L11.828,0l5.933,5.933-10.6,10.6A4.2,4.2,0,0,1,1.23,16.532Z" transform="translate(205.475 192.708)"/></g></g></g><g transform="translate(-5.419 -0.376)"><g transform="translate(138.224 670.92) rotate(-135)"><path class="c" d="M270.041,36.245,253.908,20.107,237.87,4.07a13.984,13.984,0,0,0-19.724,0L4.069,218.147a13.991,13.991,0,0,0,0,19.73l16.038,16.038,16.1,16.1a13.991,13.991,0,0,0,19.73,0L270.013,55.942A13.987,13.987,0,0,0,270.041,36.245Z" transform="translate(0)"/><path class="d" d="M249.934,16.138,233.8,0,0,233.807l16.1,16.1a13.991,13.991,0,0,0,19.73,0L249.906,35.835A13.987,13.987,0,0,0,249.934,16.138Z" transform="translate(20.107 20.107)"/><g transform="translate(32.075 45.046)"><path class="e" d="M1.229,1.229h0a4.2,4.2,0,0,0,0,5.933L24.6,30.529,30.528,24.6,7.162,1.229A4.2,4.2,0,0,0,1.229,1.229Z" transform="translate(0 193.705)"/><path class="e" d="M1.229,1.229h0a4.2,4.2,0,0,0,0,5.933l10.6,10.6,5.933-5.933-10.6-10.6A4.2,4.2,0,0,0,1.229,1.229Z" transform="translate(26.532 192.708)"/><path class="e" d="M1.229,1.229h0a4.2,4.2,0,0,0,0,5.933L24.6,30.528l5.933-5.933L7.162,1.229A4.2,4.2,0,0,0,1.229,1.229Z" transform="translate(55.059 138.646)"/><path class="e" d="M1.229,1.229h0a4.2,4.2,0,0,0,0,5.933l10.6,10.6,5.933-5.932-10.6-10.6A4.194,4.194,0,0,0,1.229,1.229Z" transform="translate(54.062 165.178)"/><path class="e" d="M1.229,1.229h0a4.2,4.2,0,0,0,0,5.933l10.6,10.6,5.933-5.933-10.6-10.6A4.2,4.2,0,0,0,1.229,1.229Z" transform="translate(40.297 178.943)"/><path class="e" d="M1.229,1.229h0a4.2,4.2,0,0,0,0,5.933l10.6,10.6,5.933-5.933-10.6-10.6A4.2,4.2,0,0,0,1.229,1.229Z" transform="translate(81.591 137.649)"/><path class="e" d="M1.229,1.229h0a4.2,4.2,0,0,0,0,5.933L24.595,30.528,30.528,24.6,7.162,1.229A4.2,4.2,0,0,0,1.229,1.229Z" transform="translate(110.119 83.587)"/><path class="e" d="M1.229,1.228h0a4.2,4.2,0,0,0,0,5.933l10.6,10.6,5.933-5.933-10.6-10.6A4.2,4.2,0,0,0,1.229,1.228Z" transform="translate(109.121 110.119)"/><path class="e" d="M1.229,1.229h0a4.2,4.2,0,0,0,0,5.933l10.6,10.6,5.933-5.933-10.6-10.6A4.2,4.2,0,0,0,1.229,1.229Z" transform="translate(95.356 123.884)"/><path class="e" d="M1.229,1.229h0a4.2,4.2,0,0,0,0,5.933l10.6,10.6,5.933-5.933-10.6-10.6A4.2,4.2,0,0,0,1.229,1.229Z" transform="translate(136.65 82.589)"/><path class="e" d="M1.229,1.229h0a4.2,4.2,0,0,0,0,5.933L24.595,30.528l5.933-5.933L7.162,1.229A4.2,4.2,0,0,0,1.229,1.229Z" transform="translate(165.177 28.527)"/><path class="e" d="M1.23,1.229h0a4.2,4.2,0,0,0,0,5.933l10.6,10.6,5.933-5.933-10.6-10.6A4.2,4.2,0,0,0,1.23,1.229Z" transform="translate(164.18 55.06)"/><path class="e" d="M1.229,1.229h0a4.2,4.2,0,0,0,0,5.933l10.6,10.6,5.933-5.933-10.6-10.6A4.2,4.2,0,0,0,1.229,1.229Z" transform="translate(150.416 68.824)"/><path class="e" d="M1.229,1.229h0a4.2,4.2,0,0,0,0,5.933l10.6,10.6,5.933-5.933-10.6-10.6A4.2,4.2,0,0,0,1.229,1.229Z" transform="translate(191.71 27.529)"/><path class="e" d="M1.229,1.229h0a4.2,4.2,0,0,0,0,5.933l10.6,10.6,5.933-5.933-10.6-10.6A4.2,4.2,0,0,0,1.229,1.229Z" transform="translate(219.24 0)"/><path class="e" d="M1.229,1.229h0a4.2,4.2,0,0,0,0,5.933l10.6,10.6,5.933-5.933-10.6-10.6A4.2,4.2,0,0,0,1.229,1.229Z" transform="translate(205.475 13.765)"/></g></g><g transform="translate(445.224 670.92) rotate(-135)"><path class="c" d="M270.041,36.245,253.908,20.107,237.87,4.07a13.984,13.984,0,0,0-19.724,0L4.069,218.147a13.991,13.991,0,0,0,0,19.73l16.038,16.038,16.1,16.1a13.991,13.991,0,0,0,19.73,0L270.013,55.942A13.987,13.987,0,0,0,270.041,36.245Z" transform="translate(0)"/><path class="d" d="M260.953,24.765,233.8,0,0,233.807l16.1,16.1a13.991,13.991,0,0,0,19.73,0L252.494,33.224C257.909,27.8,260.953,24.765,260.953,24.765Z" transform="translate(20.107 20.107)"/><g transform="translate(32.075 45.046)"><path class="e" d="M1.229,1.229h0a4.2,4.2,0,0,0,0,5.933L24.6,30.529,30.528,24.6,7.162,1.229A4.2,4.2,0,0,0,1.229,1.229Z" transform="translate(0 193.705)"/><path class="e" d="M1.229,1.229h0a4.2,4.2,0,0,0,0,5.933l10.6,10.6,5.933-5.933-10.6-10.6A4.2,4.2,0,0,0,1.229,1.229Z" transform="translate(26.532 192.708)"/><path class="e" d="M1.229,1.229h0a4.2,4.2,0,0,0,0,5.933L24.6,30.528l5.933-5.933L7.162,1.229A4.2,4.2,0,0,0,1.229,1.229Z" transform="translate(55.059 138.646)"/><path class="e" d="M1.229,1.229h0a4.2,4.2,0,0,0,0,5.933l10.6,10.6,5.933-5.932-10.6-10.6A4.194,4.194,0,0,0,1.229,1.229Z" transform="translate(54.062 165.178)"/><path class="e" d="M1.229,1.229h0a4.2,4.2,0,0,0,0,5.933l10.6,10.6,5.933-5.933-10.6-10.6A4.2,4.2,0,0,0,1.229,1.229Z" transform="translate(40.297 178.943)"/><path class="e" d="M1.229,1.229h0a4.2,4.2,0,0,0,0,5.933l10.6,10.6,5.933-5.933-10.6-10.6A4.2,4.2,0,0,0,1.229,1.229Z" transform="translate(81.591 137.649)"/><path class="e" d="M1.229,1.229h0a4.2,4.2,0,0,0,0,5.933L24.595,30.528,30.528,24.6,7.162,1.229A4.2,4.2,0,0,0,1.229,1.229Z" transform="translate(110.119 83.587)"/><path class="e" d="M1.229,1.228h0a4.2,4.2,0,0,0,0,5.933l10.6,10.6,5.933-5.933-10.6-10.6A4.2,4.2,0,0,0,1.229,1.228Z" transform="translate(109.121 110.119)"/><path class="e" d="M1.229,1.229h0a4.2,4.2,0,0,0,0,5.933l10.6,10.6,5.933-5.933-10.6-10.6A4.2,4.2,0,0,0,1.229,1.229Z" transform="translate(95.356 123.884)"/><path class="e" d="M1.229,1.229h0a4.2,4.2,0,0,0,0,5.933l10.6,10.6,5.933-5.933-10.6-10.6A4.2,4.2,0,0,0,1.229,1.229Z" transform="translate(136.65 82.589)"/><path class="e" d="M1.229,1.229h0a4.2,4.2,0,0,0,0,5.933L24.595,30.528l5.933-5.933L7.162,1.229A4.2,4.2,0,0,0,1.229,1.229Z" transform="translate(165.177 28.527)"/><path class="e" d="M1.229,1.229h0a4.2,4.2,0,0,0,0,5.933L24.595,30.528l5.933-5.933L7.162,1.229A4.2,4.2,0,0,0,1.229,1.229Z" transform="translate(217.559 -23.854)"/><path class="e" d="M1.23,1.229h0a4.2,4.2,0,0,0,0,5.933l10.6,10.6,5.933-5.933-10.6-10.6A4.2,4.2,0,0,0,1.23,1.229Z" transform="translate(164.18 55.06)"/><path class="e" d="M1.229,1.229h0a4.2,4.2,0,0,0,0,5.933l10.6,10.6,5.933-5.933-10.6-10.6A4.2,4.2,0,0,0,1.229,1.229Z" transform="translate(150.416 68.824)"/><path class="e" d="M1.229,1.229h0a4.2,4.2,0,0,0,0,5.933l10.6,10.6,5.933-5.933-10.6-10.6A4.2,4.2,0,0,0,1.229,1.229Z" transform="translate(191.71 27.529)"/><path class="e" d="M1.229,1.229h0a4.2,4.2,0,0,0,0,5.933l10.6,10.6,5.933-5.933-10.6-10.6A4.2,4.2,0,0,0,1.229,1.229Z" transform="translate(219.24 0)"/><path class="e" d="M1.229,1.229h0a4.2,4.2,0,0,0,0,5.933l10.6,10.6,5.933-5.933-10.6-10.6A4.2,4.2,0,0,0,1.229,1.229Z" transform="translate(205.475 13.765)"/></g></g></g><g transform="translate(113 130)"><path class="d" d="M74.586,0a20.51,20.51,0,0,0-17.33,10.023L2.595,104.976a20.656,20.656,0,0,0,0,20.047l54.662,94.954A20.51,20.51,0,0,0,74.586,230H183.909a20.51,20.51,0,0,0,17.329-10.024L255.9,125.023a20.656,20.656,0,0,0,0-20.047L201.238,10.023A20.505,20.505,0,0,0,183.909,0Zm.992,55.549a2.38,2.38,0,0,1,.458,0H94.893a2.486,2.486,0,0,1,2.061,1.224l31.988,57a2.462,2.462,0,0,1,.3.919,2.445,2.445,0,0,1,.3-.919l31.911-57a2.494,2.494,0,0,1,2.138-1.224h18.857a2.579,2.579,0,0,1,2.138,3.6L153.369,115l31.224,55.778a2.581,2.581,0,0,1-2.138,3.672H163.6a2.5,2.5,0,0,1-2.138-1.3l-31.911-57a2.464,2.464,0,0,1-.3-.918,2.463,2.463,0,0,1-.3.918l-31.988,57a2.494,2.494,0,0,1-2.061,1.3H76.037a2.58,2.58,0,0,1-2.137-3.672L105.124,115,73.9,59.145a2.57,2.57,0,0,1,1.679-3.6Z"/></g><path class="d" d="M468.175,237.93H464.14V24.07h4.035a4.035,4.035,0,1,0,0-8.07h-16.14a4.035,4.035,0,1,0,0,8.07h4.035V237.93h-4.035a4.035,4.035,0,0,0,0,8.07h16.14a4.035,4.035,0,1,0,0-8.07Z" transform="translate(-390 114)"/><path class="d" d="M470.675,265.425H466.14V25.07h4.535a4.535,4.535,0,1,0,0-9.07h-18.14a4.535,4.535,0,1,0,0,9.07h4.535V265.425h-4.535a4.535,4.535,0,1,0,0,9.07h18.14a4.535,4.535,0,1,0,0-9.07Z" transform="translate(387.495 -376) rotate(90)"/></g></svg>